<?xml version="1.0" standalone="yes"?>
<svg width="640" height="345">
<path style="fill:#000000; stroke:none;" d="M0 0L0 345L640 345L640 0L0 0z"/>
<path style="fill:#a6a6a6; stroke:none;" d="M518 248C513.613 249.039 507.776 250.319 504.376 253.43C490.891 265.768 482.113 281.956 466 292.049C455.864 298.397 445.54 295.369 442.681 283C441.846 279.391 442 275.678 442 272L441 272C431.374 286.094 410.059 308.482 395.994 286C394.088 282.953 392.941 279.439 392 276C373.923 286.447 353.288 308.702 333.105 286.985C329.855 283.488 327.833 279.668 327 275C313.276 281.362 303.276 297.916 286 295.814C269.08 293.756 265.572 272.617 267.425 259C270.382 237.276 277.051 216.103 285.719 196C291.822 181.846 299.692 169.679 316.996 168.666C329.299 167.946 324.389 192.524 322.572 199C318.751 212.619 312.184 224.629 303.845 236C299.764 241.564 291.229 248.048 290.148 255C288.983 262.49 288.568 279.142 298.015 281.552C307.385 283.941 321.006 272.585 324.987 265C327.508 260.197 327.797 254.067 330.039 249C336.363 234.712 351.048 218.427 368 219.044C382.193 219.561 390.961 233.184 381.61 244.996C373.023 255.843 358.28 255.272 349.607 263.995C344.037 269.597 354.974 279.451 360 280.606C390.082 287.518 395.218 244.229 413.001 230.004C420.242 224.211 432.209 215.832 442 219.252C446.349 220.77 450.679 227.276 455.039 227.184C462.375 227.029 468.183 219.406 476 219C473.576 226.632 471.523 234.372 469.086 242C466.822 249.084 458.21 271.124 464.603 277.393C472.191 284.832 489.062 262.874 492.784 258C499.285 249.487 487.627 243.471 491.761 233C494.359 226.417 508.218 210.52 513.397 224.019C515.517 229.547 511.811 235.583 511 241C523.234 239.924 527.816 230.64 534.9 222.148C537.32 219.248 541.445 219.609 543.583 216.682C551.232 206.213 554.028 187.518 556.389 175C568.522 110.664 545.539 43.0308 484 13.2585C462.594 2.9024 441.333 1 418 1C352.408 1 282.776 35.2604 246.079 91C220.6 129.7 212 175.395 212 221C212 252.071 213.874 292.726 232.789 318.999C239.262 327.99 250.717 332.179 261 335.14C281.576 341.064 301.626 344 323 344C341.422 344 360.667 345.604 379 343.83C423.133 339.559 479.289 318.924 504.415 280C509.653 271.886 515.064 257.277 518 248z"/>
<path style="fill:#ffffff; stroke:none;" d="M386 2L387 3L386 2M466 6L467 7L466 6M469 7L470 8L469 7M477 10L478 11L477 10M495 19L496 20L495 19M311 31L312 32L311 31M526 45L527 46L526 45M283 51L284 52L283 51M543 70L544 71L543 70M544 72L545 73L544 72M257 76L258 77L257 76M558 120L559 121L558 120z"/>
<path style="fill:#878787; stroke:none;" d="M77 140.424C63.6965 142.15 50.9441 143.597 39 150.429C-12.4287 179.847 -7.12872 250.099 23.0363 293C52.0347 334.242 100.621 347.733 149 341.714C160.671 340.262 176.915 337.913 185.957 329.787C192.388 324.008 194.491 315.105 196.349 307C200.5 288.892 200.933 271.39 200.039 253C197.599 202.82 165.467 162.63 118 146.667C105.595 142.496 90.1442 138.72 77 140.424z"/>
<path style="fill:#ffffff; stroke:none;" d="M50 145L51 146L50 145M409 150L409 156L414 156L414 150L409 150M419 150L419 189L424 189L427 174L429 174C431.46 180.718 435.177 188.74 443 189L433.846 171L441 161C433.274 161.251 429.16 166.84 424 172L424 150L419 150M446 150L446 156L451 156L451 150L446 150M458 153L458 161L454 161L454 165L458 165C458 174.599 454.042 189.687 467 190L467 186C460.588 182.464 463 171.422 463 165L467 165L467 161L463 161L463 153L458 153M31 155L32 156L31 155M362 181L357 181C358.144 191.238 374.334 194.203 378.253 183.96C382.135 173.816 368.681 174.98 364.377 170.491C360.671 166.626 366.467 163.862 369.91 165.164C372.51 166.147 374.184 167.556 377 168C375.51 158.453 359.34 156.655 357.362 167.004C355.265 177.973 370.539 174.087 372.539 181.1C374.471 187.875 364.033 185.031 362 181M405 179L400 179C397.75 186.778 389.168 186.947 386.653 178.996C383.655 169.518 394.216 158.277 400 170L404 170C402.82 154.356 381.813 159.291 381.045 173C380.126 189.385 402.065 197.479 405 179M558 160L559 161L558 160M409 161L409 189L414 189L414 161L409 161M446 161L446 189L451 189L451 161L446 161M216 166L217 167L216 166z"/>
<path style="fill:#d5d5d5; stroke:none;" d="M377 166L373 168L373 169C375.45 168.88 378.095 168.905 377 166z"/>
<path style="fill:#ffffff; stroke:none;" d="M14 172L15 173L14 172z"/>
<path style="fill:#3b3b3b; stroke:none;" d="M324 175L324 187L325 187L324 175z"/>
<path style="fill:#a6a6a6; stroke:none;" d="M294 237C306.365 229.734 313.601 208.289 316.575 195C317.397 191.326 320.22 181.469 315.582 179.176C310.9 176.861 307.208 188.116 306.012 191C300.215 204.971 295.203 221.88 294 237z"/>
<path style="fill:#ffffff; stroke:none;" d="M9 180L10 181L9 180z"/>
<path style="fill:#d3d3d3; stroke:none;" d="M356 183L357 183L361 181C358.387 179.502 356.646 179.988 356 183z"/>
<path style="fill:#ffffff; stroke:none;" d="M553 187L554 188L553 187z"/>
<path style="fill:#484848; stroke:none;" d="M317.333 190.667L317.667 191.333L317.333 190.667z"/>
<path style="fill:#ffffff; stroke:none;" d="M181 193L182 194L181 193z"/>
<path style="fill:#484848; stroke:none;" d="M323 193L323 196L324 196L323 193z"/>
<path style="fill:#464646; stroke:none;" d="M316.333 195.667L316.667 196.333L316.333 195.667z"/>
<path style="fill:#4a4a4a; stroke:none;" d="M322.333 198.667L322.667 199.333L322.333 198.667z"/>
<path style="fill:#ffffff; stroke:none;" d="M1 202L2 203L1 202z"/>
<path style="fill:#353535; stroke:none;" d="M314.333 202.667L314.667 203.333L314.333 202.667z"/>
<path style="fill:#6b6b6b; stroke:none;" d="M300.333 207.667L300.667 208.333L300.333 207.667z"/>
<path style="fill:#ffffff; stroke:none;" d="M546 209L547 210L546 209M190 210L191 211L190 210z"/>
<path style="fill:#656565; stroke:none;" d="M298.333 214.667L298.667 215.333L298.333 214.667z"/>
<path style="fill:#646464; stroke:none;" d="M297.333 218.667L297.667 219.333L297.333 218.667z"/>
<path style="fill:#6a6a6a; stroke:none;" d="M435 218L435 219L441 219L435 218z"/>
<path style="fill:#4e4e4e; stroke:none;" d="M361.667 219.333L362.333 219.667L361.667 219.333z"/>
<path style="fill:#646464; stroke:none;" d="M296.333 222.667L296.667 223.333L296.333 222.667z"/>
<path style="fill:#393939; stroke:none;" d="M274.333 226.667L274.667 227.333L274.333 226.667z"/>
<path style="fill:#5c5c5c; stroke:none;" d="M295.333 226.667L295.667 227.333L295.333 226.667z"/>
<path style="fill:#a6a6a6; stroke:none;" d="M347 257C357.518 255.946 377.719 240.703 367.258 228.434C359.472 219.303 349.7 237.016 348.239 243C347.102 247.656 347.001 252.238 347 257M435 226.704C421.924 231.065 416.01 251.939 414.426 264C413.451 271.422 416.552 281.245 426 278.346C439.432 274.226 445.236 252.197 446.714 240C447.63 232.439 444.279 223.609 435 226.704z"/>
<path style="fill:#676767; stroke:none;" d="M473.333 227.667L473.667 228.333L473.333 227.667z"/>
<path style="fill:#4a4a4a; stroke:none;" d="M385.333 229.667L385.667 230.333L385.333 229.667z"/>
<path style="fill:#545454; stroke:none;" d="M513 230L513 233L514 233L513 230z"/>
<path style="fill:#6a6a6a; stroke:none;" d="M294.333 231.667L294.667 232.333L294.333 231.667z"/>
<path style="fill:#404040; stroke:none;" d="M272.333 233.667L272.667 234.333L272.333 233.667z"/>
<path style="fill:#7e7e7e; stroke:none;" d="M293 235L293 239L294 239L293 235z"/>
<path style="fill:#3f3f3f; stroke:none;" d="M271.333 237.667L271.667 238.333L271.333 237.667z"/>
<path style="fill:#575757; stroke:none;" d="M385.333 237.667L385.667 238.333L385.333 237.667z"/>
<path style="fill:#6a6a6a; stroke:none;" d="M470.333 237.667L470.667 238.333L470.333 237.667z"/>
<path style="fill:#444444; stroke:none;" d="M510 240L513 242L513 241L510 240z"/>
<path style="fill:#4a4a4a; stroke:none;" d="M270.333 241.667L270.667 242.333L270.333 241.667z"/>
<path style="fill:#505050; stroke:none;" d="M446 241L446 244L447 244L446 241z"/>
<path style="fill:#575757; stroke:none;" d="M347.333 245.667L347.667 246.333L347.333 245.667z"/>
<path style="fill:#494949; stroke:none;" d="M269.333 246.667L269.667 247.333L269.333 246.667z"/>
<path style="fill:#666666; stroke:none;" d="M467.333 247.667L467.667 248.333L467.333 247.667z"/>
<path style="fill:#565656; stroke:none;" d="M518.333 247.667L518.667 248.333L518.333 247.667z"/>
<path style="fill:#5a5a5a; stroke:none;" d="M346 250C346 253.511 345.013 257.146 349 258L349 257L346 250z"/>
<path style="fill:#676767; stroke:none;" d="M509.667 250.333L510.333 250.667L509.667 250.333z"/>
<path style="fill:#303030; stroke:none;" d="M268 251L268 255L269 255L268 251z"/>
<path style="fill:#707070; stroke:none;" d="M505.667 251.333L506.333 251.667L505.667 251.333z"/>
<path style="fill:#616161; stroke:none;" d="M465.333 254.667L465.667 255.333L465.333 254.667z"/>
<path style="fill:#4d4d4d; stroke:none;" d="M327.333 255.667L327.667 256.333L327.333 255.667z"/>
<path style="fill:#383838; stroke:none;" d="M393.333 257.667L393.667 258.333L393.333 257.667z"/>
<path style="fill:#292929; stroke:none;" d="M267 258L267 275L268 275L267 258z"/>
<path style="fill:#626262; stroke:none;" d="M464.333 258.667L464.667 259.333L464.333 258.667z"/>
<path style="fill:#262626; stroke:none;" d="M289 259L289 269L290 269L289 259z"/>
<path style="fill:#474747; stroke:none;" d="M326 259L326 264L327 264L326 259z"/>
<path style="fill:#4a4a4a; stroke:none;" d="M392 261L392 264L393 264L392 261z"/>
<path style="fill:#484848; stroke:none;" d="M414 261L414 264L415 264L414 261z"/>
<path style="fill:#4d4d4d; stroke:none;" d="M463 262L463 265L464 265L463 262z"/>
<path style="fill:#727272; stroke:none;" d="M348.667 263.333L349.333 263.667L348.667 263.333z"/>
<path style="fill:#545454; stroke:none;" d="M347.333 264.667L347.667 265.333L347.333 264.667z"/>
<path style="fill:#4e4e4e; stroke:none;" d="M462 267L462 274L463 274L462 267z"/>
<path style="fill:#585858; stroke:none;" d="M290.333 271.667L290.667 272.333L290.333 271.667z"/>
<path style="fill:#3f3f3f; stroke:none;" d="M414.333 271.667L414.667 272.333L414.333 271.667z"/>
<path style="fill:#676767; stroke:none;" d="M506.333 274.667L506.667 275.333L506.333 274.667z"/>
<path style="fill:#6d6d6d; stroke:none;" d="M327.333 277.667L327.667 278.333L327.333 277.667z"/>
<path style="fill:#535353; stroke:none;" d="M392.333 277.667L392.667 278.333L392.333 277.667z"/>
<path style="fill:#575757; stroke:none;" d="M268.333 278.667L268.667 279.333L268.333 278.667z"/>
<path style="fill:#ffffff; stroke:none;" d="M15 280L16 281L15 280z"/>
<path style="fill:#505050; stroke:none;" d="M370.667 280.333L371.333 280.667L370.667 280.333z"/>
<path style="fill:#2f2f2f; stroke:none;" d="M362 281L362 282L368 282L362 281z"/>
<path style="fill:#6b6b6b; stroke:none;" d="M442.333 281.667L442.667 282.333L442.333 281.667z"/>
<path style="fill:#616161; stroke:none;" d="M443.333 285.667L443.667 286.333L443.333 285.667z"/>
<path style="fill:#383838; stroke:none;" d="M291 295L291 296L294 296L291 295z"/>
<path style="fill:#464646; stroke:none;" d="M346 295L346 296L349 296L346 295M413 295L413 296L416 296L413 295z"/>
<path style="fill:#666666; stroke:none;" d="M458.667 295.333L459.333 295.667L458.667 295.333z"/>
<path style="fill:#ffffff; stroke:none;" d="M27 298L28 299L27 298M197 301L198 302L197 301M32 304L33 305L32 304M225 304L226 305L225 304M196 306L197 307L196 306M474 308L475 309L474 308M462 316L463 317L462 316M49 320L50 321L49 320M455 320L456 321L455 320M447 324L448 325L447 324M60 327L61 328L60 327M187 328L188 329L187 328M438 328L439 329L438 328M98 340L99 341L98 340z"/>
</svg>
